<svg xmlns="http://www.w3.org/2000/svg" width="527" height="352" viewBox="0 0 527 352">
  <rect x="0" y="0" width="527" height="352" fill="#10131c"/>
  <path data-satin-id="s2" d="M0,0 L31,0 L54,3 L75,8 L96,16 L106,21 L114,20 L119,19 L128,19 L142,22 L160,30 L178,41 L194,53 L207,64 L219,75 L232,88 L241,99 L250,111 L258,127 L262,140 L263,147 L263,159 L260,173 L254,185 L243,197 L234,204 L221,210 L216,211 L197,211 L186,207 L176,201 L175,211 L171,223 L164,237 L155,248 L147,256 L133,266 L114,275 L93,282 L67,287 L36,290 L-3,290 L-34,287 L-59,282 L-80,275 L-99,266 L-113,256 L-126,243 L-134,230 L-140,216 L-143,204 L-143,201 L-157,209 L-164,211 L-183,211 L-195,207 L-207,200 L-215,193 L-223,182 L-228,169 L-230,157 L-230,147 L-227,131 L-219,114 L-210,101 L-199,88 L-195,83 L-190,78 L-184,73 L-179,68 L-168,58 L-151,45 L-136,35 L-115,24 L-102,20 L-96,19 L-87,19 L-79,21 L-73,21 L-59,14 L-45,9 L-31,5 L-17,2 Z M2,11 L-15,13 L-34,17 L-52,23 L-68,31 L-71,37 L-81,71 L-89,92 L-98,112 L-109,131 L-116,142 L-125,171 L-130,183 L-132,186 L-131,201 L-126,218 L-119,230 L-110,240 L-100,249 L-85,258 L-64,266 L-45,271 L-30,274 L-11,276 L44,276 L68,273 L88,269 L104,264 L120,257 L132,250 L142,242 L149,235 L158,221 L163,207 L165,196 L165,186 L155,161 L149,142 L142,131 L133,116 L122,93 L112,66 L104,39 L101,31 L84,23 L63,16 L40,12 L28,11 Z M-97,30 L-110,34 L-131,45 L-147,56 L-163,69 L-167,72 L-167,74 L-171,76 L-191,96 L-202,110 L-210,123 L-215,135 L-216,140 L-216,161 L-212,172 L-206,182 L-199,189 L-187,196 L-180,198 L-165,198 L-153,192 L-148,187 L-143,181 L-135,166 L-128,145 L-122,118 L-120,116 L-116,117 L-113,118 L-99,89 L-92,72 L-83,43 L-80,32 L-84,30 Z M117,30 L113,31 L115,41 L121,61 L129,83 L137,101 L146,118 L148,118 L148,116 L153,116 L156,120 L162,147 L169,168 L176,181 L181,188 L183,188 L183,190 L192,196 L198,198 L213,198 L225,193 L231,189 L239,182 L245,172 L248,165 L249,160 L249,142 L246,131 L238,115 L230,104 L223,95 L221,95 L219,91 L203,75 L195,68 L179,55 L159,42 L143,34 L131,30 Z" fill="#000000" fill-opacity="0.15" stroke="#ffffff" stroke-opacity="0.18" stroke-width="0.5" transform="translate(245 23)"/>
  <path data-satin-id="s5" d="M0,0 L87,0 L93,4 L95,8 L95,99 L91,105 L88,107 L-1,107 L-6,103 L-8,99 L-8,7 L-4,2 Z M5,6 L0,8 L-2,13 L-2,49 L-1,50 L39,50 L40,49 L40,7 L39,6 Z M47,6 L46,7 L46,49 L47,50 L88,50 L89,49 L89,13 L87,8 L82,6 Z M-1,56 L-2,57 L-2,94 L0,99 L5,101 L39,101 L40,100 L40,57 L39,56 Z M47,56 L46,57 L46,100 L47,101 L82,101 L88,98 L89,94 L89,57 L88,56 Z" fill="#000000" fill-opacity="0.15" stroke="#ffffff" stroke-opacity="0.18" stroke-width="0.5" transform="translate(228 122)"/>
  <path data-satin-id="s10" d="M0,0 L13,1 L22,5 L25,9 L26,14 L23,20 L18,24 L9,27 L-4,27 L-15,23 L-20,17 L-20,10 L-16,5 L-7,1 Z M0,6 L-10,8 L-14,12 L-13,16 L-9,19 L-1,21 L7,21 L16,18 L19,16 L19,11 L15,8 L5,6 Z" fill="#000000" fill-opacity="0.15" stroke="#ffffff" stroke-opacity="0.18" stroke-width="0.5" transform="translate(150 210)"/>
  <path data-satin-id="s11" d="M0,0 L14,2 L22,7 L24,11 L23,18 L18,23 L11,26 L6,27 L-4,27 L-14,24 L-19,21 L-21,18 L-21,10 L-17,5 L-9,1 Z M-2,6 L-11,8 L-15,11 L-15,16 L-8,20 L-3,21 L5,21 L15,18 L17,16 L17,11 L13,8 L3,6 Z" fill="#000000" fill-opacity="0.15" stroke="#ffffff" stroke-opacity="0.18" stroke-width="0.5" transform="translate(369 210)"/>
  <polyline data-edge-id="edge_1" points="170.5,50 165.659,71.092 153.629,106.672 137.469,141.944 129.39,148.026 127.528,151.273 115.532,189.69 108.662,204.5 105.497,216.04 81.3639,226.983 66.5223,227.559 53.4733,224.155 44.9133,219.595 35.9622,212.143 28.9505,202.907 24.8902,193.845 22.5314,180.242 23.0455,164.264 24.8442,154.66 29.5374,143.78 38.9133,128.466 50.2207,114.528 86.2303,81.0688 103.752,68.2155 123.602,56.597 144.112,48.7469 153.25,47.7607 174.152,48.8506 193.34,40.086 210.29,34.8176 229.685,30.7518 251.594,28.4972 271.688,28.5157 291.616,30.5533 327.586,40.0006 352.379,51.023 361.83,87.1981 377.203,125.953 387.553,144.902 392.75,147.251 395.75,142.75" fill="none" stroke="#00d5ff" stroke-width="1.6" stroke-linecap="round" stroke-linejoin="round"/>
  <polyline data-edge-id="edge_2" points="352.25,50 357.674,48.276 369.746,47.9341 385.185,50.6276 401.501,57.7151 422.789,70.9913 449.621,92.4279 470.622,112.978 485.66,131.647 495.086,148.81 499.168,161.724 500.608,175.401 499.248,190.25 494.701,201.11 486.264,212.149 475.281,220.77 462.624,226.28 449.159,227.986 437.636,225.895 417.212,216.224 414.347,204.75 393.25,147.75" fill="none" stroke="#00d5ff" stroke-width="1.6" stroke-linecap="round" stroke-linejoin="round"/>
  <polyline data-edge-id="edge_3" points="230,125.409 231.679,125.138 233.474,125.111 235.282,125.193 237,125.25 251,125.25 296.5,125.25 298.152,125.21 299.96,125.115 301.886,124.999 303.889,124.897 305.931,124.843 307.973,124.873 309.975,125.021 311.898,125.323 313.703,125.813 315.351,126.526 316.802,127.497 318.018,128.76 319.029,130.463 319.621,132.261 319.906,134.131 319.995,136.051 320,138 320,150.5 320,205.5 320.032,207.372 320.096,209.351 320.15,211.397 320.147,213.47 320.044,215.527 319.795,217.53 319.356,219.436 318.683,221.204 317.73,222.795 316.454,224.167 314.808,225.279 312.75,226.091 311.076,226.367 309.278,226.394 307.466,226.309 305.75,226.25 291.75,226.25 246.25,226.25 244.642,226.291 242.858,226.39 240.94,226.512 238.934,226.621 236.881,226.681 234.828,226.657 232.816,226.513 230.89,226.213 229.095,225.722 227.473,225.005 226.068,224.024 224.925,222.746 224.049,221.211 223.487,219.648 223.17,218.051 223.03,216.414 222.996,214.732 223,213 223,200.75 223,146.5 222.966,144.737 222.889,142.872 222.807,140.942 222.757,138.978 222.777,137.015 222.906,135.087 223.18,133.228 223.638,131.471 224.317,129.85 225.255,128.4 226.489,127.154 228.059,126.145 230,125.409" fill="none" stroke="#00d5ff" stroke-width="1.6" stroke-linecap="round" stroke-linejoin="round"/>
  <polyline data-edge-id="edge_4" points="271,125.75 271,225.5" fill="none" stroke="#00d5ff" stroke-width="1.6" stroke-linecap="round" stroke-linejoin="round"/>
  <polyline data-edge-id="edge_5" points="223.5,175 319.5,175" fill="none" stroke="#00d5ff" stroke-width="1.6" stroke-linecap="round" stroke-linejoin="round"/>
  <polyline data-edge-id="edge_6" points="150,213.356 151.913,213.192 153.875,213.184 155.866,213.316 157.863,213.573 159.847,213.941 161.795,214.403 163.687,214.946 165.5,215.554 166.924,216.104 168.372,216.798 169.695,217.675 170.745,218.772 171.431,220.096 171.776,221.545 171.831,223.04 171.65,224.5 171.494,225.436 171.322,226.426 171.054,227.379 170.609,228.204 169.363,229.492 167.791,230.61 165.977,231.568 164.007,232.37 161.964,233.026 159.934,233.541 158.001,233.923 156.25,234.178 154.399,234.336 152.556,234.371 150.723,234.291 148.9,234.102 147.091,233.813 145.295,233.431 143.514,232.963 141.75,232.417 140.525,232.034 139.277,231.627 138.078,231.117 137,230.431 135.493,228.958 134.364,227.307 133.628,225.542 133.298,223.727 133.39,221.925 133.917,220.201 134.893,218.618 136.333,217.241 138.25,216.132 139.869,215.487 141.517,214.953 143.188,214.512 144.878,214.149 146.58,213.847 148.29,213.588 150,213.356" fill="none" stroke="#00d5ff" stroke-width="1.6" stroke-linecap="round" stroke-linejoin="round"/>
  <polyline data-edge-id="edge_7" points="368.25,213.379 370.007,213.316 371.906,213.345 373.897,213.473 375.93,213.711 377.957,214.066 379.926,214.549 381.79,215.167 383.498,215.93 385,216.847 385.848,217.424 386.748,218.045 387.578,218.736 388.215,219.523 388.589,220.373 388.823,221.333 388.949,222.319 388.995,223.25 388.819,225.187 388.243,226.891 387.321,228.376 386.103,229.657 384.643,230.746 382.992,231.66 381.203,232.411 379.327,233.014 377.416,233.483 375.524,233.832 373.701,234.076 372,234.228 370.207,234.299 368.355,234.27 366.467,234.138 364.568,233.897 362.682,233.546 360.833,233.079 359.045,232.493 357.343,231.784 355.75,230.949 354.739,230.387 353.685,229.782 352.709,229.083 351.933,228.239 351.452,227.279 351.166,226.195 351.03,225.074 351,224 351.225,221.987 351.836,220.247 352.783,218.76 354.016,217.506 355.485,216.463 357.143,215.612 358.938,214.932 360.821,214.402 362.744,214.002 364.656,213.712 366.508,213.511 368.25,213.379" fill="none" stroke="#00d5ff" stroke-width="1.6" stroke-linecap="round" stroke-linejoin="round"/>
  <polyline data-edge-id="edge_8" points="105.5,216.75 113.063,242.318 120.248,256.034 132.863,270.797 150.024,283.451 171.576,293.407 198,300.7 227.628,304.888 261.5,306.25 294.934,304.943 324.159,300.825 350.785,293.735 372.352,284.1 389.818,271.534 402.582,256.977 411.385,239.735 417.25,217" fill="none" stroke="#00d5ff" stroke-width="1.6" stroke-linecap="round" stroke-linejoin="round"/>
  <circle data-node-id="node_1" cx="170.5" cy="50" r="2.2" fill="#30e37a" stroke="#ffffff" stroke-width="0.8"/>
  <circle data-node-id="node_2" cx="395.75" cy="142.75" r="2.2" fill="#30e37a" stroke="#ffffff" stroke-width="0.8"/>
  <circle data-node-id="node_3" cx="352.25" cy="50" r="2.2" fill="#30e37a" stroke="#ffffff" stroke-width="0.8"/>
  <circle data-node-id="node_4" cx="393.25" cy="147.75" r="2.2" fill="#30e37a" stroke="#ffffff" stroke-width="0.8"/>
  <circle data-node-id="node_5" cx="230" cy="125.409" r="2.2" fill="#d9d55a" stroke="#ffffff" stroke-width="0.8"/>
  <circle data-node-id="node_6" cx="271" cy="125.75" r="2.2" fill="#30e37a" stroke="#ffffff" stroke-width="0.8"/>
  <circle data-node-id="node_7" cx="271" cy="225.5" r="2.2" fill="#30e37a" stroke="#ffffff" stroke-width="0.8"/>
  <circle data-node-id="node_8" cx="223.5" cy="175" r="2.2" fill="#30e37a" stroke="#ffffff" stroke-width="0.8"/>
  <circle data-node-id="node_9" cx="319.5" cy="175" r="2.2" fill="#30e37a" stroke="#ffffff" stroke-width="0.8"/>
  <circle data-node-id="node_10" cx="150" cy="213.356" r="2.2" fill="#d9d55a" stroke="#ffffff" stroke-width="0.8"/>
  <circle data-node-id="node_11" cx="368.25" cy="213.379" r="2.2" fill="#d9d55a" stroke="#ffffff" stroke-width="0.8"/>
  <circle data-node-id="node_12" cx="105.5" cy="216.75" r="2.2" fill="#30e37a" stroke="#ffffff" stroke-width="0.8"/>
  <circle data-node-id="node_13" cx="417.25" cy="217" r="2.2" fill="#30e37a" stroke="#ffffff" stroke-width="0.8"/>
</svg>